<?xml version="1.0" standalone="no"?>
<!DOCTYPE svg PUBLIC "-//W3C//DTD SVG 20010904//EN"
 "http://www.w3.org/TR/2001/REC-SVG-20010904/DTD/svg10.dtd">
<svg version="1.0" xmlns="http://www.w3.org/2000/svg"
 width="807.000000pt" height="807.000000pt" viewBox="0 0 807.000000 807.000000"
 preserveAspectRatio="xMidYMid meet">
<metadata>
Created by potrace 1.14, written by Peter Selinger 2001-2017
</metadata>
<g transform="translate(0.000000,807.000000) scale(0.100000,-0.100000)"
fill="#000000" stroke="none">
<path d="M3653 6650 c-49 -22 -93 -67 -123 -127 -26 -52 -31 -92 -19 -138 10
-35 74 -105 97 -105 6 0 12 -4 12 -10 0 -5 4 -10 9 -10 5 0 36 -18 69 -40 70
-46 133 -116 167 -185 26 -53 46 -137 36 -153 -3 -5 -40 -10 -81 -11 -140 -4
-369 -18 -420 -26 -14 -2 -52 -6 -85 -10 -94 -10 -125 -15 -205 -31 -41 -8
-86 -16 -99 -19 -257 -49 -533 -167 -720 -308 -225 -169 -412 -419 -526 -702
-15 -38 -33 -83 -40 -100 -7 -16 -21 -59 -31 -94 -12 -44 -23 -65 -36 -69 -10
-2 -18 -8 -18 -13 0 -5 6 -6 14 -3 11 4 10 -11 -4 -83 -10 -48 -21 -108 -25
-133 -3 -25 -8 -56 -10 -70 -25 -147 -24 -467 1 -622 16 -103 44 -240 51 -251
2 -4 7 -19 9 -34 10 -54 78 -221 131 -324 l56 -107 -17 -51 c-9 -28 -37 -85
-62 -127 -82 -135 -94 -220 -44 -320 41 -83 104 -142 200 -189 69 -33 79 -42
74 -59 -4 -11 -7 -55 -7 -97 -1 -66 3 -82 27 -124 42 -71 92 -122 174 -177 94
-63 163 -94 271 -120 112 -26 190 -21 290 21 74 31 74 31 95 12 40 -37 91 -51
189 -51 52 0 116 4 143 9 146 28 530 40 814 27 208 -10 874 -5 885 6 4 4 18 3
31 -2 14 -6 26 -6 29 0 4 7 13 7 24 0 10 -5 20 -7 23 -5 4 4 119 16 188 19 19
1 40 4 45 7 6 3 22 5 38 4 15 0 27 3 27 8 0 4 5 5 10 2 6 -3 16 -3 23 2 15 9
31 13 74 16 18 1 33 5 33 9 0 3 8 5 18 3 9 -1 23 2 30 8 6 5 12 7 12 4 0 -4
18 0 40 8 22 8 40 12 40 8 0 -3 6 -1 13 4 6 6 22 9 35 8 12 -1 22 2 22 7 0 5
8 8 18 7 9 -1 20 0 25 1 4 1 10 3 15 5 4 1 14 4 22 8 8 3 56 18 105 33 50 14
95 30 101 35 6 5 14 6 17 2 4 -3 7 -1 7 5 0 7 9 12 20 12 11 0 20 5 20 10 0 6
9 10 20 10 11 0 20 4 20 8 0 4 30 23 66 42 36 19 74 43 85 53 10 10 19 15 19
12 0 -5 32 19 66 51 12 12 37 32 56 45 45 32 198 185 198 198 0 6 4 11 8 11 5
0 36 27 69 60 33 33 59 60 57 60 -1 0 12 16 31 35 18 20 41 52 51 73 9 20 23
43 31 50 17 17 19 631 2 665 -6 12 -42 51 -81 87 l-70 65 -2 60 c0 33 3 87 7
120 21 146 25 222 22 405 -2 107 -6 204 -8 215 -3 11 -8 43 -11 70 -47 370
-212 759 -426 1005 -71 82 -81 92 -164 163 -31 27 -53 53 -50 58 3 5 10 7 15
4 5 -4 12 1 15 9 3 9 10 13 15 10 5 -3 9 0 9 6 0 6 5 8 10 5 6 -3 10 -1 10 4
0 6 3 10 8 9 9 -3 99 40 106 50 2 4 -30 7 -72 6 -42 -1 -81 1 -87 5 -5 3 -17
6 -25 8 -8 1 -16 7 -18 12 -2 6 -10 11 -18 11 -9 0 -12 5 -9 10 3 6 1 10 -5
10 -18 0 -37 23 -61 76 -13 27 -26 51 -29 54 -4 3 -18 39 -31 80 -29 92 -25
77 -34 128 -4 23 -12 45 -18 49 -7 4 -7 -9 -2 -38 10 -56 11 -220 2 -279 -4
-25 -9 -53 -10 -62 -5 -30 -15 -31 -69 -6 -67 32 -263 102 -311 112 -7 2 -23
6 -37 9 -66 17 -158 37 -190 41 -19 3 -44 8 -56 10 -12 2 -45 7 -74 11 -29 4
-61 8 -70 10 -10 2 -54 6 -99 10 -44 3 -90 8 -101 10 -27 5 -323 18 -377 17
-46 -1 -45 -3 -58 98 -13 99 -18 118 -46 191 -35 92 -105 193 -185 270 -79 75
-251 209 -291 226 -45 18 -100 16 -150 -7z"/>
</g>
</svg>
